<svg width="542" height="230" viewBox="0 0 542 230" fill="none" xmlns="http://www.w3.org/2000/svg">
<path d="M94.7754 62.5283C91.8457 64.5791 89.2578 66.1904 87.0117 67.3623C84.7656 68.5342 82.5684 69.4375 80.4199 70.0723C77.9297 74.0273 75.1953 77.7871 72.2168 81.3516C69.2871 84.8672 66.2109 88.2852 62.9883 91.6055C59.8145 94.9258 56.5674 98.1729 53.2471 101.347C49.9756 104.472 46.7773 107.597 43.6523 110.722C45.7031 113.651 48.0469 116.923 50.6836 120.536C53.3203 124.149 56.1523 127.787 59.1797 131.449C62.2559 135.111 65.4785 138.7 68.8477 142.216C72.2656 145.683 75.7324 148.759 79.248 151.444C82.8125 154.13 86.4258 156.303 90.0879 157.963C93.7988 159.574 97.4609 160.38 101.074 160.38C102.344 160.38 103.687 160.233 105.103 159.94C106.519 159.647 107.983 159.135 109.497 158.402C106.567 161.576 103.979 164.066 101.733 165.873C99.5361 167.631 97.6807 168.925 96.167 169.755C94.4092 170.78 92.8955 171.391 91.626 171.586C90.0635 171.732 88.1592 171.366 85.9131 170.487C83.667 169.608 81.2256 168.388 78.5889 166.825C75.9521 165.214 73.2178 163.334 70.3857 161.186C67.5537 159.037 64.7949 156.767 62.1094 154.374C59.1309 151.591 55.957 148.368 52.5879 144.706C49.707 141.581 46.4355 137.797 42.7734 133.354C39.1602 128.861 35.4492 123.759 31.6406 118.046L37.9395 110.136C39.4043 108.915 41.1377 107.401 43.1396 105.595C45.1416 103.739 47.2412 101.737 49.4385 99.5889C51.6357 97.3916 53.8574 95.0723 56.1035 92.6309C58.3984 90.1895 60.5469 87.748 62.5488 85.3066C64.5508 82.8164 66.333 80.375 67.8955 77.9824C69.458 75.5898 70.6787 73.3438 71.5576 71.2441C70.1416 71.3906 68.1641 71.5859 65.625 71.8301C63.0859 72.0742 60.2051 72.4404 56.9824 72.9287C59.6191 70.7803 61.9873 69.1445 64.0869 68.0215C66.1865 66.8984 67.9932 66.0684 69.5068 65.5312C71.2646 64.9453 72.8516 64.6035 74.2676 64.5059C75.9766 64.5547 77.8564 64.5303 79.9072 64.4326C81.958 64.335 83.9355 64.2129 85.8398 64.0664C87.793 63.8711 89.5508 63.6514 91.1133 63.4072C92.7246 63.1143 93.9453 62.8213 94.7754 62.5283ZM44.2383 161.552C41.6016 163.31 39.4287 164.823 37.7197 166.093C36.0107 167.362 34.4482 168.412 33.0322 169.242C31.665 170.023 30.3223 170.609 29.0039 171C27.7344 171.391 26.2207 171.586 24.4629 171.586C22.1191 171.586 20.1172 171.488 18.457 171.293C16.7969 171.098 15.1367 171 13.4766 171C12.6465 171 11.792 171.024 10.9131 171.073C10.083 171.171 9.15527 171.342 8.12988 171.586C9.49707 170.414 10.7422 169.145 11.8652 167.777C12.9883 166.41 13.9404 164.726 14.7217 162.724C15.5518 160.722 16.1865 158.329 16.626 155.546C17.0654 152.714 17.2852 149.32 17.2852 145.365V71.3906C15.7715 71.5371 13.9404 71.7324 11.792 71.9766C9.64355 72.2207 7.20215 72.5381 4.46777 72.9287C7.10449 70.7803 9.47266 69.1445 11.5723 68.0215C13.7207 66.8984 15.5518 66.0684 17.0654 65.5312C18.8232 64.9453 20.3857 64.6035 21.7529 64.5059C23.4619 64.5547 25.3418 64.5303 27.3926 64.4326C29.4922 64.335 31.4941 64.2129 33.3984 64.0664C35.3516 63.8711 37.1338 63.6514 38.7451 63.4072C40.3564 63.1143 41.5527 62.8213 42.334 62.5283C40.0391 64.042 37.9639 65.3359 36.1084 66.4102C34.3018 67.4355 32.5684 68.29 30.9082 68.9736C30.6641 77.8115 30.4443 85.7217 30.249 92.7041C30.1025 99.6865 29.9561 105.888 29.8096 111.308C29.7119 116.679 29.6143 121.342 29.5166 125.297C29.4678 129.203 29.4189 132.548 29.3701 135.331C29.2236 141.825 29.1748 146.269 29.2236 148.661C29.1748 150.468 28.9307 152.25 28.4912 154.008C28.1006 155.57 27.5146 157.23 26.7334 158.988C25.9521 160.697 24.8291 162.26 23.3643 163.676C24.292 163.773 25.1953 163.822 26.0742 163.822C26.9531 163.822 27.8076 163.822 28.6377 163.822C31.1279 163.822 33.3252 163.725 35.2295 163.529C37.1826 163.285 38.8184 163.017 40.1367 162.724C41.6992 162.382 43.0664 161.991 44.2383 161.552ZM245.068 162.724C240.869 166.044 236.963 168.656 233.35 170.561C229.785 172.416 226.66 173.417 223.975 173.563C221.436 173.759 218.774 173.271 215.991 172.099C213.208 170.976 210.327 169.389 207.349 167.338C204.419 165.287 201.416 162.87 198.34 160.087C195.312 157.304 192.285 154.35 189.258 151.225C185.84 154.545 182.202 157.597 178.345 160.38C174.487 163.114 170.557 165.507 166.553 167.558C162.598 169.56 158.667 171.098 154.761 172.172C150.854 173.295 147.168 173.808 143.701 173.71C141.309 173.661 138.818 173.319 136.23 172.685C133.643 172.099 131.104 171.22 128.613 170.048C126.172 168.876 123.853 167.411 121.655 165.653C119.458 163.896 117.529 161.845 115.869 159.501C114.258 157.108 112.988 154.447 112.061 151.518C111.182 148.539 110.815 145.243 110.962 141.63C111.157 137.333 112.134 133.524 113.892 130.204C115.698 126.884 117.896 123.979 120.483 121.488C123.12 118.949 125.977 116.801 129.053 115.043C132.129 113.236 135.107 111.698 137.988 110.429C135.84 109.501 133.813 108.476 131.909 107.353C130.054 106.181 128.418 104.789 127.002 103.178C125.586 101.518 124.463 99.6133 123.633 97.4648C122.803 95.2676 122.388 92.6797 122.388 89.7012C122.388 85.8926 123.34 82.2061 125.244 78.6416C127.148 75.0771 130.005 72.0254 133.813 69.4863C136.938 67.2891 139.941 65.4092 142.822 63.8467C145.703 62.2842 148.389 60.9902 150.879 59.9648C153.418 58.8906 155.762 58.0605 157.91 57.4746C160.059 56.8887 161.963 56.5225 163.623 56.376C166.797 56.083 170.166 56.0586 173.73 56.3027C177.295 56.498 180.591 57.1328 183.618 58.207C188.013 59.7207 188.794 61.5273 185.962 63.627C185.376 64.0664 184.546 64.6768 183.472 65.458C182.544 66.1416 181.323 67.0205 179.81 68.0947C178.296 69.1689 176.367 70.5117 174.023 72.123C174.805 71.1953 175.244 70.4141 175.342 69.7793C175.439 69.0957 175.391 68.5586 175.195 68.168C175 67.6797 174.609 67.3135 174.023 67.0693C173.242 66.7275 171.948 66.3125 170.142 65.8242C168.384 65.3359 166.382 64.8965 164.136 64.5059C161.938 64.1152 159.595 63.8223 157.104 63.627C154.663 63.4316 152.344 63.4316 150.146 63.627C147.949 63.7734 145.923 64.4814 144.067 65.751C142.261 66.9717 140.674 68.5098 139.307 70.3652C137.939 72.1719 136.865 74.1494 136.084 76.2979C135.352 78.4463 134.985 80.5215 134.985 82.5234C134.985 84.5254 135.254 86.5762 135.791 88.6758C136.377 90.7266 137.354 92.6797 138.721 94.5352C140.088 96.3418 141.919 98.002 144.214 99.5156C146.558 100.98 149.487 102.152 153.003 103.031C156.519 103.91 159.937 105.351 163.257 107.353C166.626 109.306 169.849 111.527 172.925 114.018C176.05 116.508 179.028 119.145 181.86 121.928C184.692 124.711 187.378 127.372 189.917 129.911L195.264 135.624C196.973 131.327 197.827 126.859 197.827 122.221C197.827 119.73 197.461 117.191 196.729 114.604C195.996 112.016 194.897 109.721 193.433 107.719C192.017 105.717 190.234 104.154 188.086 103.031C185.938 101.908 183.447 101.566 180.615 102.006L194.678 91.0195C200.732 91.8496 206.128 92.4111 210.864 92.7041C215.649 92.9971 219.702 93.1436 223.022 93.1436C225.854 93.1436 228.662 93.0459 231.445 92.8506C234.277 92.6553 237.012 92.2891 239.648 91.752C242.334 91.2148 244.873 90.4824 247.266 89.5547C249.707 88.5781 251.929 87.333 253.931 85.8193C250.366 88.7979 246.875 91.3369 243.457 93.4365C240.039 95.4873 236.548 97.1719 232.983 98.4902C229.419 99.8086 225.708 100.785 221.851 101.42C218.042 102.006 213.989 102.299 209.692 102.299H208.521C209.204 103.861 209.668 105.448 209.912 107.06C210.156 108.671 210.278 110.185 210.278 111.601C210.278 116.288 209.277 121.049 207.275 125.883C205.273 130.668 202.588 135.355 199.219 139.945C201.904 142.826 204.736 145.731 207.715 148.661C210.742 151.591 213.843 154.276 217.017 156.718C220.19 159.11 223.413 161.063 226.685 162.577C229.956 164.091 233.203 164.848 236.426 164.848C238.281 164.848 239.917 164.628 241.333 164.188C242.798 163.749 244.043 163.261 245.068 162.724ZM151.611 115.482L143.994 112.772C141.357 113.261 139.16 113.749 137.402 114.237C135.645 114.726 134.204 115.165 133.081 115.556C131.763 116.044 130.688 116.532 129.858 117.021C128.882 117.704 127.905 118.607 126.929 119.73C125.952 120.805 125.049 122.074 124.219 123.539C123.438 124.955 122.778 126.542 122.241 128.3C121.753 130.058 121.509 131.938 121.509 133.939C121.509 138.285 122.485 142.289 124.438 145.951C126.44 149.564 129.028 152.689 132.202 155.326C135.376 157.914 138.94 159.94 142.896 161.405C146.851 162.821 150.806 163.529 154.761 163.529C161.108 163.529 167.065 162.211 172.632 159.574C178.247 156.938 183.105 153.397 187.207 148.954C183.74 145.341 180.347 141.728 177.026 138.114C173.706 134.452 170.508 131.083 167.432 128.007C164.404 124.931 161.548 122.27 158.862 120.023C156.226 117.777 153.809 116.264 151.611 115.482ZM255.322 84.7207C255.078 84.9648 254.834 85.1846 254.59 85.3799C254.395 85.5264 254.175 85.6729 253.931 85.8193C254.175 85.6729 254.395 85.5264 254.59 85.3799C254.834 85.1846 255.078 84.9648 255.322 84.7207ZM353.979 70.3652C353.101 71.4883 352.026 72.5869 350.757 73.6611C349.683 74.5889 348.34 75.5654 346.729 76.5908C345.166 77.6162 343.335 78.5439 341.235 79.374C341.919 78.4951 341.968 77.5674 341.382 76.5908C340.845 75.5654 339.624 74.6377 337.72 73.8076C335.815 72.9775 333.228 72.2939 329.956 71.7568C326.733 71.2197 322.778 70.9512 318.091 70.9512C315.356 70.9512 312.402 71.2441 309.229 71.8301C306.104 72.3672 303.003 73.3193 299.927 74.6865C296.851 76.0537 293.872 77.8848 290.991 80.1797C288.159 82.4258 285.645 85.2578 283.447 88.6758C281.25 92.0449 279.492 96.0732 278.174 100.761C276.904 105.399 276.27 110.771 276.27 116.874C276.27 122.978 277.002 128.349 278.467 132.987C279.98 137.626 281.958 141.63 284.399 144.999C286.89 148.319 289.722 151.103 292.896 153.349C296.069 155.546 299.316 157.328 302.637 158.695C305.957 160.014 309.204 160.941 312.378 161.479C315.601 162.016 318.506 162.284 321.094 162.284C324.072 162.235 327.173 162.016 330.396 161.625C333.179 161.283 336.23 160.795 339.551 160.16C342.92 159.477 346.216 158.5 349.438 157.23C344.702 161.039 340.308 163.944 336.255 165.946C332.202 167.948 328.638 169.438 325.562 170.414C321.997 171.537 318.726 172.172 315.747 172.318C308.521 172.318 301.709 171.269 295.312 169.169C288.916 167.021 283.301 163.944 278.467 159.94C273.682 155.888 269.897 150.932 267.114 145.072C264.331 139.213 262.939 132.548 262.939 125.077C262.939 120.438 263.379 116.142 264.258 112.187C265.137 108.183 266.284 104.521 267.7 101.2C269.165 97.8799 270.801 94.9014 272.607 92.2646C274.414 89.5791 276.245 87.2354 278.101 85.2334C280.005 83.1826 281.836 81.4736 283.594 80.1064C285.4 78.7393 286.963 77.6895 288.281 76.957C289.551 76.2246 291.162 75.3945 293.115 74.4668C295.117 73.5391 297.29 72.6113 299.634 71.6836C302.026 70.707 304.541 69.7549 307.178 68.8271C309.814 67.8994 312.5 67.0693 315.234 66.3369C317.969 65.6045 320.63 65.0186 323.218 64.5791C325.854 64.1396 328.345 63.9199 330.688 63.9199C335.913 63.9199 340.137 64.1641 343.359 64.6523C346.582 65.1406 349.023 65.751 350.684 66.4834C352.393 67.167 353.442 67.875 353.833 68.6074C354.272 69.3398 354.321 69.9258 353.979 70.3652Z" fill="white" fillOpacity="0.75"/>
<path d="M366.44 155L363.144 144.408H364.408L367.128 153.304L369.976 144.408H371.352L374.2 153.304L376.92 144.408H378.184L374.888 155H373.528L370.664 146.104L367.8 155H366.44ZM379.368 155V143.8H380.568V148.248C380.856 147.864 381.208 147.539 381.624 147.272C382.04 147.005 382.573 146.872 383.224 146.872C383.779 146.872 384.296 147.005 384.776 147.272C385.267 147.528 385.661 147.917 385.96 148.44C386.269 148.952 386.424 149.587 386.424 150.344V155H385.224V150.376C385.224 149.651 385.016 149.069 384.6 148.632C384.184 148.184 383.645 147.96 382.984 147.96C382.536 147.96 382.131 148.061 381.768 148.264C381.405 148.467 381.112 148.755 380.888 149.128C380.675 149.491 380.568 149.912 380.568 150.392V155H379.368ZM391.983 155.128C391.172 155.128 390.463 154.947 389.855 154.584C389.247 154.211 388.772 153.709 388.431 153.08C388.1 152.451 387.935 151.757 387.935 151C387.935 150.232 388.095 149.539 388.415 148.92C388.735 148.291 389.193 147.795 389.791 147.432C390.388 147.059 391.092 146.872 391.903 146.872C392.724 146.872 393.428 147.059 394.015 147.432C394.612 147.795 395.071 148.291 395.391 148.92C395.711 149.539 395.871 150.232 395.871 151V151.48H389.167C389.231 151.949 389.38 152.381 389.615 152.776C389.86 153.16 390.185 153.469 390.591 153.704C390.996 153.928 391.465 154.04 391.999 154.04C392.564 154.04 393.039 153.917 393.423 153.672C393.807 153.416 394.105 153.091 394.319 152.696H395.631C395.353 153.411 394.911 153.997 394.303 154.456C393.705 154.904 392.932 155.128 391.983 155.128ZM389.183 150.36H394.623C394.516 149.677 394.228 149.107 393.759 148.648C393.289 148.189 392.671 147.96 391.903 147.96C391.135 147.96 390.516 148.189 390.047 148.648C389.588 149.107 389.3 149.677 389.183 150.36ZM397.337 155V147H398.537V148.968C398.58 148.829 398.66 148.648 398.777 148.424C398.905 148.189 399.086 147.955 399.321 147.72C399.556 147.485 399.849 147.288 400.201 147.128C400.564 146.957 400.99 146.872 401.481 146.872H401.561V148.072H401.417C400.82 148.072 400.302 148.237 399.865 148.568C399.438 148.888 399.108 149.309 398.873 149.832C398.649 150.344 398.537 150.893 398.537 151.48V155H397.337ZM406.201 155.128C405.391 155.128 404.681 154.947 404.073 154.584C403.465 154.211 402.991 153.709 402.649 153.08C402.319 152.451 402.153 151.757 402.153 151C402.153 150.232 402.313 149.539 402.633 148.92C402.953 148.291 403.412 147.795 404.009 147.432C404.607 147.059 405.311 146.872 406.121 146.872C406.943 146.872 407.647 147.059 408.233 147.432C408.831 147.795 409.289 148.291 409.609 148.92C409.929 149.539 410.089 150.232 410.089 151V151.48H403.385C403.449 151.949 403.599 152.381 403.833 152.776C404.079 153.16 404.404 153.469 404.809 153.704C405.215 153.928 405.684 154.04 406.217 154.04C406.783 154.04 407.257 153.917 407.641 153.672C408.025 153.416 408.324 153.091 408.537 152.696H409.849C409.572 153.411 409.129 153.997 408.521 154.456C407.924 154.904 407.151 155.128 406.201 155.128ZM403.401 150.36H408.841C408.735 149.677 408.447 149.107 407.977 148.648C407.508 148.189 406.889 147.96 406.121 147.96C405.353 147.96 404.735 148.189 404.265 148.648C403.807 149.107 403.519 149.677 403.401 150.36ZM419.666 155.128C418.61 155.128 417.698 154.888 416.93 154.408C416.162 153.917 415.57 153.261 415.154 152.44C414.749 151.619 414.546 150.707 414.546 149.704C414.546 148.701 414.749 147.789 415.154 146.968C415.57 146.147 416.162 145.496 416.93 145.016C417.698 144.525 418.61 144.28 419.666 144.28C420.466 144.28 421.186 144.424 421.826 144.712C422.466 144.989 423.01 145.373 423.458 145.864C423.906 146.355 424.242 146.925 424.466 147.576H423.202C422.935 146.925 422.514 146.408 421.938 146.024C421.362 145.64 420.637 145.448 419.762 145.448C418.909 145.448 418.178 145.64 417.57 146.024C416.973 146.397 416.519 146.904 416.21 147.544C415.901 148.184 415.746 148.904 415.746 149.704C415.746 150.493 415.901 151.213 416.21 151.864C416.519 152.504 416.973 153.016 417.57 153.4C418.178 153.773 418.909 153.96 419.762 153.96C420.637 153.96 421.362 153.768 421.938 153.384C422.514 153 422.935 152.483 423.202 151.832H424.466C424.242 152.472 423.906 153.043 423.458 153.544C423.01 154.035 422.466 154.424 421.826 154.712C421.186 154.989 420.466 155.128 419.666 155.128ZM429.481 155.128C428.67 155.128 427.966 154.947 427.369 154.584C426.771 154.211 426.313 153.709 425.993 153.08C425.673 152.451 425.513 151.757 425.513 151C425.513 150.232 425.673 149.539 425.993 148.92C426.313 148.291 426.771 147.795 427.369 147.432C427.966 147.059 428.67 146.872 429.481 146.872C430.302 146.872 431.006 147.059 431.593 147.432C432.19 147.795 432.649 148.291 432.969 148.92C433.289 149.539 433.449 150.232 433.449 151C433.449 151.757 433.289 152.451 432.969 153.08C432.649 153.709 432.19 154.211 431.593 154.584C431.006 154.947 430.302 155.128 429.481 155.128ZM429.481 154.04C430.078 154.04 430.579 153.901 430.985 153.624C431.401 153.347 431.715 152.979 431.929 152.52C432.142 152.051 432.249 151.544 432.249 151C432.249 150.445 432.142 149.939 431.929 149.48C431.715 149.021 431.401 148.653 430.985 148.376C430.579 148.099 430.078 147.96 429.481 147.96C428.894 147.96 428.393 148.099 427.977 148.376C427.561 148.653 427.246 149.021 427.033 149.48C426.819 149.939 426.713 150.445 426.713 151C426.713 151.544 426.819 152.051 427.033 152.52C427.246 152.979 427.561 153.347 427.977 153.624C428.393 153.901 428.894 154.04 429.481 154.04ZM435.04 155V147H436.24V148.216C436.421 147.896 436.709 147.592 437.104 147.304C437.499 147.016 438.021 146.872 438.672 146.872C439.205 146.872 439.696 147.016 440.144 147.304C440.603 147.581 440.96 147.976 441.216 148.488C441.323 148.307 441.488 148.088 441.712 147.832C441.947 147.576 442.251 147.352 442.624 147.16C442.997 146.968 443.445 146.872 443.968 146.872C444.48 146.872 444.96 147.005 445.408 147.272C445.856 147.539 446.219 147.923 446.496 148.424C446.784 148.915 446.928 149.496 446.928 150.168V155H445.728V150.2C445.728 149.528 445.536 148.989 445.152 148.584C444.779 148.168 444.309 147.96 443.744 147.96C443.157 147.96 442.651 148.157 442.224 148.552C441.797 148.947 441.584 149.501 441.584 150.216V155H440.384V150.2C440.384 149.528 440.192 148.989 439.808 148.584C439.435 148.168 438.965 147.96 438.4 147.96C437.813 147.96 437.307 148.157 436.88 148.552C436.453 148.947 436.24 149.501 436.24 150.216V155H435.04ZM449.475 155V148.056H448.099V147H449.475V146.296C449.475 145.421 449.736 144.765 450.259 144.328C450.792 143.891 451.517 143.672 452.435 143.672H452.531V144.808H452.371C451.816 144.808 451.395 144.936 451.107 145.192C450.819 145.437 450.675 145.837 450.675 146.392V147H452.531V148.056H450.675V155H449.475ZM457.153 155.128C456.342 155.128 455.638 154.947 455.041 154.584C454.443 154.211 453.985 153.709 453.665 153.08C453.345 152.451 453.185 151.757 453.185 151C453.185 150.232 453.345 149.539 453.665 148.92C453.985 148.291 454.443 147.795 455.041 147.432C455.638 147.059 456.342 146.872 457.153 146.872C457.974 146.872 458.678 147.059 459.265 147.432C459.862 147.795 460.321 148.291 460.641 148.92C460.961 149.539 461.121 150.232 461.121 151C461.121 151.757 460.961 152.451 460.641 153.08C460.321 153.709 459.862 154.211 459.265 154.584C458.678 154.947 457.974 155.128 457.153 155.128ZM457.153 154.04C457.75 154.04 458.251 153.901 458.657 153.624C459.073 153.347 459.387 152.979 459.601 152.52C459.814 152.051 459.921 151.544 459.921 151C459.921 150.445 459.814 149.939 459.601 149.48C459.387 149.021 459.073 148.653 458.657 148.376C458.251 148.099 457.75 147.96 457.153 147.96C456.566 147.96 456.065 148.099 455.649 148.376C455.233 148.653 454.918 149.021 454.705 149.48C454.491 149.939 454.385 150.445 454.385 151C454.385 151.544 454.491 152.051 454.705 152.52C454.918 152.979 455.233 153.347 455.649 153.624C456.065 153.901 456.566 154.04 457.153 154.04ZM462.712 155V147H463.912V148.968C463.955 148.829 464.035 148.648 464.152 148.424C464.28 148.189 464.461 147.955 464.696 147.72C464.931 147.485 465.224 147.288 465.576 147.128C465.939 146.957 466.365 146.872 466.856 146.872H466.936V148.072H466.792C466.195 148.072 465.677 148.237 465.24 148.568C464.813 148.888 464.483 149.309 464.248 149.832C464.024 150.344 463.912 150.893 463.912 151.48V155H462.712ZM469.092 155V148.056H467.46V147H469.092V144.136H470.292V147H472.132V148.056H470.292V155H469.092ZM364.296 171V160.408H365.688L369.48 165.432L373.208 160.408H374.6V171H373.4V162.232L369.48 167.272L365.496 162.232V171H364.296ZM380.483 171.128C379.672 171.128 378.963 170.947 378.355 170.584C377.747 170.211 377.272 169.709 376.931 169.08C376.6 168.451 376.435 167.757 376.435 167C376.435 166.232 376.595 165.539 376.915 164.92C377.235 164.291 377.693 163.795 378.291 163.432C378.888 163.059 379.592 162.872 380.403 162.872C381.224 162.872 381.928 163.059 382.515 163.432C383.112 163.795 383.571 164.291 383.891 164.92C384.211 165.539 384.371 166.232 384.371 167V167.48H377.667C377.731 167.949 377.88 168.381 378.115 168.776C378.36 169.16 378.685 169.469 379.091 169.704C379.496 169.928 379.965 170.04 380.499 170.04C381.064 170.04 381.539 169.917 381.923 169.672C382.307 169.416 382.605 169.091 382.819 168.696H384.131C383.853 169.411 383.411 169.997 382.803 170.456C382.205 170.904 381.432 171.128 380.483 171.128ZM377.683 166.36H383.123C383.016 165.677 382.728 165.107 382.259 164.648C381.789 164.189 381.171 163.96 380.403 163.96C379.635 163.96 379.016 164.189 378.547 164.648C378.088 165.107 377.8 165.677 377.683 166.36ZM389.389 171.128C388.578 171.128 387.869 170.947 387.261 170.584C386.653 170.211 386.178 169.709 385.837 169.08C385.506 168.451 385.341 167.757 385.341 167C385.341 166.232 385.501 165.539 385.821 164.92C386.141 164.291 386.6 163.795 387.197 163.432C387.794 163.059 388.498 162.872 389.309 162.872C390.13 162.872 390.834 163.059 391.421 163.432C392.018 163.795 392.477 164.291 392.797 164.92C393.117 165.539 393.277 166.232 393.277 167V167.48H386.573C386.637 167.949 386.786 168.381 387.021 168.776C387.266 169.16 387.592 169.469 387.997 169.704C388.402 169.928 388.872 170.04 389.405 170.04C389.97 170.04 390.445 169.917 390.829 169.672C391.213 169.416 391.512 169.091 391.725 168.696H393.037C392.76 169.411 392.317 169.997 391.709 170.456C391.112 170.904 390.338 171.128 389.389 171.128ZM386.589 166.36H392.029C391.922 165.677 391.634 165.107 391.165 164.648C390.696 164.189 390.077 163.96 389.309 163.96C388.541 163.96 387.922 164.189 387.453 164.648C386.994 165.107 386.706 165.677 386.589 166.36ZM395.607 171V164.056H393.975V163H395.607V160.136H396.807V163H398.647V164.056H396.807V171H395.607ZM402.874 171.128C402.138 171.128 401.514 171.005 401.002 170.76C400.501 170.515 400.117 170.195 399.85 169.8C399.583 169.395 399.434 168.957 399.402 168.488H400.65C400.682 168.755 400.773 169.016 400.922 169.272C401.082 169.517 401.322 169.72 401.642 169.88C401.962 170.029 402.378 170.104 402.89 170.104C403.05 170.104 403.247 170.088 403.482 170.056C403.717 170.024 403.941 169.965 404.154 169.88C404.378 169.795 404.565 169.667 404.714 169.496C404.863 169.325 404.938 169.107 404.938 168.84C404.938 168.509 404.81 168.253 404.554 168.072C404.298 167.891 403.967 167.752 403.562 167.656C403.157 167.549 402.725 167.448 402.266 167.352C401.818 167.256 401.391 167.133 400.986 166.984C400.581 166.824 400.25 166.605 399.994 166.328C399.738 166.04 399.61 165.651 399.61 165.16C399.61 164.435 399.871 163.875 400.394 163.48C400.927 163.075 401.711 162.872 402.746 162.872C403.45 162.872 404.021 162.984 404.458 163.208C404.906 163.421 405.242 163.699 405.466 164.04C405.701 164.381 405.839 164.749 405.882 165.144H404.666C404.623 164.803 404.453 164.509 404.154 164.264C403.866 164.019 403.386 163.896 402.714 163.896C401.445 163.896 400.81 164.28 400.81 165.048C400.81 165.368 400.938 165.613 401.194 165.784C401.45 165.955 401.781 166.093 402.186 166.2C402.591 166.296 403.018 166.392 403.466 166.488C403.925 166.573 404.357 166.696 404.762 166.856C405.167 167.016 405.498 167.245 405.754 167.544C406.01 167.832 406.138 168.227 406.138 168.728C406.138 169.507 405.839 170.104 405.242 170.52C404.655 170.925 403.866 171.128 402.874 171.128ZM415.791 171.128C414.735 171.128 413.823 170.888 413.055 170.408C412.287 169.917 411.695 169.261 411.279 168.44C410.874 167.619 410.671 166.707 410.671 165.704C410.671 164.701 410.874 163.789 411.279 162.968C411.695 162.147 412.287 161.496 413.055 161.016C413.823 160.525 414.735 160.28 415.791 160.28C416.591 160.28 417.311 160.424 417.951 160.712C418.591 160.989 419.135 161.373 419.583 161.864C420.031 162.355 420.367 162.925 420.591 163.576H419.327C419.06 162.925 418.639 162.408 418.063 162.024C417.487 161.64 416.762 161.448 415.887 161.448C415.034 161.448 414.303 161.64 413.695 162.024C413.098 162.397 412.644 162.904 412.335 163.544C412.026 164.184 411.871 164.904 411.871 165.704C411.871 166.493 412.026 167.213 412.335 167.864C412.644 168.504 413.098 169.016 413.695 169.4C414.303 169.773 415.034 169.96 415.887 169.96C416.762 169.96 417.487 169.768 418.063 169.384C418.639 169 419.06 168.483 419.327 167.832H420.591C420.367 168.472 420.031 169.043 419.583 169.544C419.135 170.035 418.591 170.424 417.951 170.712C417.311 170.989 416.591 171.128 415.791 171.128ZM422.134 171V163H423.334V164.968C423.376 164.829 423.456 164.648 423.574 164.424C423.702 164.189 423.883 163.955 424.118 163.72C424.352 163.485 424.646 163.288 424.998 163.128C425.36 162.957 425.787 162.872 426.278 162.872H426.358V164.072H426.214C425.616 164.072 425.099 164.237 424.662 164.568C424.235 164.888 423.904 165.309 423.67 165.832C423.446 166.344 423.334 166.893 423.334 167.48V171H422.134ZM430.822 171.128C430.044 171.128 429.361 170.947 428.774 170.584C428.198 170.211 427.75 169.709 427.43 169.08C427.11 168.451 426.95 167.757 426.95 167C426.95 166.232 427.11 165.539 427.43 164.92C427.75 164.291 428.198 163.795 428.774 163.432C429.361 163.059 430.044 162.872 430.822 162.872C431.484 162.872 432.049 163 432.518 163.256C432.998 163.512 433.388 163.859 433.686 164.296V163H434.886V171H433.686V169.72C433.388 170.147 432.998 170.488 432.518 170.744C432.049 171 431.484 171.128 430.822 171.128ZM430.982 170.04C431.58 170.04 432.081 169.901 432.486 169.624C432.902 169.347 433.217 168.979 433.43 168.52C433.644 168.051 433.75 167.544 433.75 167C433.75 166.445 433.644 165.939 433.43 165.48C433.217 165.021 432.902 164.653 432.486 164.376C432.081 164.099 431.58 163.96 430.982 163.96C430.396 163.96 429.889 164.099 429.462 164.376C429.036 164.653 428.71 165.021 428.486 165.48C428.262 165.939 428.15 166.445 428.15 167C428.15 167.544 428.262 168.051 428.486 168.52C428.71 168.979 429.036 169.347 429.462 169.624C429.889 169.901 430.396 170.04 430.982 170.04ZM437.506 171V164.056H436.13V163H437.506V162.296C437.506 161.421 437.767 160.765 438.29 160.328C438.823 159.891 439.549 159.672 440.466 159.672H440.562V160.808H440.402C439.847 160.808 439.426 160.936 439.138 161.192C438.85 161.437 438.706 161.837 438.706 162.392V163H440.562V164.056H438.706V171H437.506ZM442.732 171V164.056H441.1V163H442.732V160.136H443.932V163H445.772V164.056H443.932V171H442.732ZM449.999 171.128C449.263 171.128 448.639 171.005 448.127 170.76C447.626 170.515 447.242 170.195 446.975 169.8C446.708 169.395 446.559 168.957 446.527 168.488H447.775C447.807 168.755 447.898 169.016 448.047 169.272C448.207 169.517 448.447 169.72 448.767 169.88C449.087 170.029 449.503 170.104 450.015 170.104C450.175 170.104 450.372 170.088 450.607 170.056C450.842 170.024 451.066 169.965 451.279 169.88C451.503 169.795 451.69 169.667 451.839 169.496C451.988 169.325 452.063 169.107 452.063 168.84C452.063 168.509 451.935 168.253 451.679 168.072C451.423 167.891 451.092 167.752 450.687 167.656C450.282 167.549 449.85 167.448 449.391 167.352C448.943 167.256 448.516 167.133 448.111 166.984C447.706 166.824 447.375 166.605 447.119 166.328C446.863 166.04 446.735 165.651 446.735 165.16C446.735 164.435 446.996 163.875 447.519 163.48C448.052 163.075 448.836 162.872 449.871 162.872C450.575 162.872 451.146 162.984 451.583 163.208C452.031 163.421 452.367 163.699 452.591 164.04C452.826 164.381 452.964 164.749 453.007 165.144H451.791C451.748 164.803 451.578 164.509 451.279 164.264C450.991 164.019 450.511 163.896 449.839 163.896C448.57 163.896 447.935 164.28 447.935 165.048C447.935 165.368 448.063 165.613 448.319 165.784C448.575 165.955 448.906 166.093 449.311 166.2C449.716 166.296 450.143 166.392 450.591 166.488C451.05 166.573 451.482 166.696 451.887 166.856C452.292 167.016 452.623 167.245 452.879 167.544C453.135 167.832 453.263 168.227 453.263 168.728C453.263 169.507 452.964 170.104 452.367 170.52C451.78 170.925 450.991 171.128 449.999 171.128ZM454.806 171V163H456.006V164.216C456.187 163.896 456.475 163.592 456.87 163.304C457.264 163.016 457.787 162.872 458.438 162.872C458.971 162.872 459.462 163.016 459.91 163.304C460.368 163.581 460.726 163.976 460.982 164.488C461.088 164.307 461.254 164.088 461.478 163.832C461.712 163.576 462.016 163.352 462.39 163.16C462.763 162.968 463.211 162.872 463.734 162.872C464.246 162.872 464.726 163.005 465.174 163.272C465.622 163.539 465.984 163.923 466.262 164.424C466.55 164.915 466.694 165.496 466.694 166.168V171H465.494V166.2C465.494 165.528 465.302 164.989 464.918 164.584C464.544 164.168 464.075 163.96 463.51 163.96C462.923 163.96 462.416 164.157 461.99 164.552C461.563 164.947 461.35 165.501 461.35 166.216V171H460.15V166.2C460.15 165.528 459.958 164.989 459.574 164.584C459.2 164.168 458.731 163.96 458.166 163.96C457.579 163.96 457.072 164.157 456.646 164.552C456.219 164.947 456.006 165.501 456.006 166.216V171H454.806ZM472.072 171.128C471.294 171.128 470.611 170.947 470.024 170.584C469.448 170.211 469 169.709 468.68 169.08C468.36 168.451 468.2 167.757 468.2 167C468.2 166.232 468.36 165.539 468.68 164.92C469 164.291 469.448 163.795 470.024 163.432C470.611 163.059 471.294 162.872 472.072 162.872C472.734 162.872 473.299 163 473.768 163.256C474.248 163.512 474.638 163.859 474.936 164.296V163H476.136V171H474.936V169.72C474.638 170.147 474.248 170.488 473.768 170.744C473.299 171 472.734 171.128 472.072 171.128ZM472.232 170.04C472.83 170.04 473.331 169.901 473.736 169.624C474.152 169.347 474.467 168.979 474.68 168.52C474.894 168.051 475 167.544 475 167C475 166.445 474.894 165.939 474.68 165.48C474.467 165.021 474.152 164.653 473.736 164.376C473.331 164.099 472.83 163.96 472.232 163.96C471.646 163.96 471.139 164.099 470.712 164.376C470.286 164.653 469.96 165.021 469.736 165.48C469.512 165.939 469.4 166.445 469.4 167C469.4 167.544 469.512 168.051 469.736 168.52C469.96 168.979 470.286 169.347 470.712 169.624C471.139 169.901 471.646 170.04 472.232 170.04ZM478.212 171V163H479.412V164.248C479.7 163.864 480.052 163.539 480.468 163.272C480.884 163.005 481.417 162.872 482.068 162.872C482.623 162.872 483.14 163.005 483.62 163.272C484.111 163.528 484.505 163.917 484.804 164.44C485.113 164.952 485.268 165.587 485.268 166.344V171H484.068V166.376C484.068 165.651 483.86 165.069 483.444 164.632C483.028 164.184 482.489 163.96 481.828 163.96C481.38 163.96 480.975 164.061 480.612 164.264C480.249 164.467 479.956 164.755 479.732 165.128C479.519 165.491 479.412 165.912 479.412 166.392V171H478.212ZM490.186 171.128C489.45 171.128 488.826 171.005 488.314 170.76C487.813 170.515 487.429 170.195 487.162 169.8C486.896 169.395 486.746 168.957 486.714 168.488H487.962C487.994 168.755 488.085 169.016 488.234 169.272C488.394 169.517 488.634 169.72 488.954 169.88C489.274 170.029 489.69 170.104 490.202 170.104C490.362 170.104 490.56 170.088 490.794 170.056C491.029 170.024 491.253 169.965 491.466 169.88C491.69 169.795 491.877 169.667 492.026 169.496C492.176 169.325 492.25 169.107 492.25 168.84C492.25 168.509 492.122 168.253 491.866 168.072C491.61 167.891 491.28 167.752 490.874 167.656C490.469 167.549 490.037 167.448 489.578 167.352C489.13 167.256 488.704 167.133 488.298 166.984C487.893 166.824 487.562 166.605 487.306 166.328C487.05 166.04 486.922 165.651 486.922 165.16C486.922 164.435 487.184 163.875 487.706 163.48C488.24 163.075 489.024 162.872 490.058 162.872C490.762 162.872 491.333 162.984 491.77 163.208C492.218 163.421 492.554 163.699 492.778 164.04C493.013 164.381 493.152 164.749 493.194 165.144H491.978C491.936 164.803 491.765 164.509 491.466 164.264C491.178 164.019 490.698 163.896 490.026 163.896C488.757 163.896 488.122 164.28 488.122 165.048C488.122 165.368 488.25 165.613 488.506 165.784C488.762 165.955 489.093 166.093 489.498 166.2C489.904 166.296 490.33 166.392 490.778 166.488C491.237 166.573 491.669 166.696 492.074 166.856C492.48 167.016 492.81 167.245 493.066 167.544C493.322 167.832 493.45 168.227 493.45 168.728C493.45 169.507 493.152 170.104 492.554 170.52C491.968 170.925 491.178 171.128 490.186 171.128ZM494.993 171V159.8H496.193V164.248C496.481 163.864 496.833 163.539 497.249 163.272C497.665 163.005 498.198 162.872 498.849 162.872C499.404 162.872 499.921 163.005 500.401 163.272C500.892 163.528 501.286 163.917 501.585 164.44C501.894 164.952 502.049 165.587 502.049 166.344V171H500.849V166.376C500.849 165.651 500.641 165.069 500.225 164.632C499.809 164.184 499.27 163.96 498.609 163.96C498.161 163.96 497.756 164.061 497.393 164.264C497.03 164.467 496.737 164.755 496.513 165.128C496.3 165.491 496.193 165.912 496.193 166.392V171H494.993ZM504.008 161.656V160.088H505.304V161.656H504.008ZM504.056 171V163H505.256V171H504.056ZM507.337 174.168V163H508.537V164.28C508.836 163.843 509.22 163.501 509.689 163.256C510.169 163 510.74 162.872 511.401 162.872C512.18 162.872 512.857 163.059 513.433 163.432C514.02 163.795 514.473 164.291 514.793 164.92C515.113 165.539 515.273 166.232 515.273 167C515.273 167.757 515.113 168.451 514.793 169.08C514.473 169.709 514.02 170.211 513.433 170.584C512.857 170.947 512.18 171.128 511.401 171.128C510.74 171.128 510.169 171 509.689 170.744C509.22 170.477 508.836 170.131 508.537 169.704V174.168H507.337ZM511.241 170.04C511.838 170.04 512.345 169.901 512.761 169.624C513.188 169.347 513.513 168.979 513.737 168.52C513.961 168.051 514.073 167.544 514.073 167C514.073 166.445 513.961 165.939 513.737 165.48C513.513 165.021 513.188 164.653 512.761 164.376C512.345 164.099 511.838 163.96 511.241 163.96C510.654 163.96 510.153 164.099 509.737 164.376C509.321 164.653 509.006 165.021 508.793 165.48C508.58 165.939 508.473 166.445 508.473 167C508.473 167.544 508.58 168.051 508.793 168.52C509.006 168.979 509.321 169.347 509.737 169.624C510.153 169.901 510.654 170.04 511.241 170.04Z" fill="#F8E8D6" fillOpacity="0.88"/>
<path d="M95.296 31V20.408H102.944V21.56H96.496V25.24H102.24V26.408H96.496V31H95.296ZM107.606 31.128C106.795 31.128 106.091 30.9467 105.494 30.584C104.896 30.2107 104.438 29.7093 104.118 29.08C103.798 28.4507 103.638 27.7573 103.638 27C103.638 26.232 103.798 25.5387 104.118 24.92C104.438 24.2907 104.896 23.7947 105.494 23.432C106.091 23.0587 106.795 22.872 107.606 22.872C108.427 22.872 109.131 23.0587 109.718 23.432C110.315 23.7947 110.774 24.2907 111.094 24.92C111.414 25.5387 111.574 26.232 111.574 27C111.574 27.7573 111.414 28.4507 111.094 29.08C110.774 29.7093 110.315 30.2107 109.718 30.584C109.131 30.9467 108.427 31.128 107.606 31.128ZM107.606 30.04C108.203 30.04 108.704 29.9013 109.11 29.624C109.526 29.3467 109.84 28.9787 110.054 28.52C110.267 28.0507 110.374 27.544 110.374 27C110.374 26.4453 110.267 25.9387 110.054 25.48C109.84 25.0213 109.526 24.6533 109.11 24.376C108.704 24.0987 108.203 23.96 107.606 23.96C107.019 23.96 106.518 24.0987 106.102 24.376C105.686 24.6533 105.371 25.0213 105.158 25.48C104.944 25.9387 104.838 26.4453 104.838 27C104.838 27.544 104.944 28.0507 105.158 28.52C105.371 28.9787 105.686 29.3467 106.102 29.624C106.518 29.9013 107.019 30.04 107.606 30.04ZM113.165 31V23H114.365V24.968C114.408 24.8293 114.488 24.648 114.605 24.424C114.733 24.1893 114.914 23.9547 115.149 23.72C115.384 23.4853 115.677 23.288 116.029 23.128C116.392 22.9573 116.818 22.872 117.309 22.872H117.389V24.072H117.245C116.648 24.072 116.13 24.2373 115.693 24.568C115.266 24.888 114.936 25.3093 114.701 25.832C114.477 26.344 114.365 26.8933 114.365 27.48V31H113.165ZM126.711 31.128C125.836 31.128 125.058 30.936 124.375 30.552C123.703 30.1573 123.175 29.608 122.791 28.904C122.407 28.2 122.215 27.3787 122.215 26.44V20.408H123.415V26.472C123.415 27.2933 123.57 27.96 123.879 28.472C124.199 28.984 124.61 29.3627 125.111 29.608C125.623 29.8427 126.156 29.96 126.711 29.96C127.276 29.96 127.81 29.8427 128.311 29.608C128.812 29.3627 129.223 28.984 129.543 28.472C129.863 27.96 130.023 27.2933 130.023 26.472V20.408H131.223V26.44C131.223 27.368 131.031 28.184 130.647 28.888C130.263 29.592 129.73 30.1413 129.047 30.536C128.375 30.9307 127.596 31.128 126.711 31.128ZM133.259 31V23H134.459V24.968C134.501 24.8293 134.581 24.648 134.699 24.424C134.827 24.1893 135.008 23.9547 135.243 23.72C135.477 23.4853 135.771 23.288 136.123 23.128C136.485 22.9573 136.912 22.872 137.403 22.872H137.483V24.072H137.339C136.741 24.072 136.224 24.2373 135.787 24.568C135.36 24.888 135.029 25.3093 134.795 25.832C134.571 26.344 134.459 26.8933 134.459 27.48V31H133.259ZM142.838 31.128C142.177 31.128 141.606 31 141.126 30.744C140.657 30.488 140.273 30.1467 139.974 29.72V31H138.774V19.8H139.974V24.296C140.273 23.8587 140.657 23.512 141.126 23.256C141.606 23 142.177 22.872 142.838 22.872C143.617 22.872 144.294 23.0587 144.87 23.432C145.457 23.7947 145.91 24.2907 146.23 24.92C146.55 25.5387 146.71 26.232 146.71 27C146.71 27.7573 146.55 28.4507 146.23 29.08C145.91 29.7093 145.457 30.2107 144.87 30.584C144.294 30.9467 143.617 31.128 142.838 31.128ZM142.678 30.04C143.276 30.04 143.782 29.9013 144.198 29.624C144.625 29.3467 144.95 28.9787 145.174 28.52C145.398 28.0507 145.51 27.544 145.51 27C145.51 26.4453 145.398 25.9387 145.174 25.48C144.95 25.0213 144.625 24.6533 144.198 24.376C143.782 24.0987 143.276 23.96 142.678 23.96C142.092 23.96 141.59 24.0987 141.174 24.376C140.758 24.6533 140.444 25.0213 140.23 25.48C140.017 25.9387 139.91 26.4453 139.91 27C139.91 27.544 140.017 28.0507 140.23 28.52C140.444 28.9787 140.758 29.3467 141.174 29.624C141.59 29.9013 142.092 30.04 142.678 30.04ZM151.666 31.128C150.887 31.128 150.205 30.9467 149.618 30.584C149.042 30.2107 148.594 29.7093 148.274 29.08C147.954 28.4507 147.794 27.7573 147.794 27C147.794 26.232 147.954 25.5387 148.274 24.92C148.594 24.2907 149.042 23.7947 149.618 23.432C150.205 23.0587 150.887 22.872 151.666 22.872C152.327 22.872 152.893 23 153.362 23.256C153.842 23.512 154.231 23.8587 154.53 24.296V23H155.73V31H154.53V29.72C154.231 30.1467 153.842 30.488 153.362 30.744C152.893 31 152.327 31.128 151.666 31.128ZM151.826 30.04C152.423 30.04 152.925 29.9013 153.33 29.624C153.746 29.3467 154.061 28.9787 154.274 28.52C154.487 28.0507 154.594 27.544 154.594 27C154.594 26.4453 154.487 25.9387 154.274 25.48C154.061 25.0213 153.746 24.6533 153.33 24.376C152.925 24.0987 152.423 23.96 151.826 23.96C151.239 23.96 150.733 24.0987 150.306 24.376C149.879 24.6533 149.554 25.0213 149.33 25.48C149.106 25.9387 148.994 26.4453 148.994 27C148.994 27.544 149.106 28.0507 149.33 28.52C149.554 28.9787 149.879 29.3467 150.306 29.624C150.733 29.9013 151.239 30.04 151.826 30.04ZM157.806 31V23H159.006V24.248C159.294 23.864 159.646 23.5387 160.062 23.272C160.478 23.0053 161.011 22.872 161.662 22.872C162.216 22.872 162.734 23.0053 163.214 23.272C163.704 23.528 164.099 23.9173 164.398 24.44C164.707 24.952 164.862 25.5867 164.862 26.344V31H163.662V26.376C163.662 25.6507 163.454 25.0693 163.038 24.632C162.622 24.184 162.083 23.96 161.422 23.96C160.974 23.96 160.568 24.0613 160.206 24.264C159.843 24.4667 159.55 24.7547 159.326 25.128C159.112 25.4907 159.006 25.912 159.006 26.392V31H157.806ZM170.53 31V20.408H171.73V29.848H177.506V31H170.53ZM178.758 21.656V20.088H180.054V21.656H178.758ZM178.806 31V23H180.006V31H178.806ZM184.263 31L181.127 23H182.439L184.967 29.72L187.479 23H188.791L185.671 31H184.263ZM189.867 21.656V20.088H191.163V21.656H189.867ZM189.915 31V23H191.115V31H189.915ZM193.196 31V23H194.396V24.248C194.684 23.864 195.036 23.5387 195.452 23.272C195.868 23.0053 196.402 22.872 197.052 22.872C197.607 22.872 198.124 23.0053 198.604 23.272C199.095 23.528 199.49 23.9173 199.788 24.44C200.098 24.952 200.252 25.5867 200.252 26.344V31H199.052V26.376C199.052 25.6507 198.844 25.0693 198.428 24.632C198.012 24.184 197.474 23.96 196.812 23.96C196.364 23.96 195.959 24.0613 195.596 24.264C195.234 24.4667 194.94 24.7547 194.716 25.128C194.503 25.4907 194.396 25.912 194.396 26.392V31H193.196ZM205.923 34.296C204.92 34.296 204.104 34.0773 203.475 33.64C202.845 33.2133 202.419 32.6533 202.195 31.96H203.523C203.683 32.3547 203.96 32.6587 204.355 32.872C204.749 33.096 205.251 33.208 205.859 33.208C206.776 33.208 207.443 32.9893 207.859 32.552C208.285 32.1253 208.499 31.5013 208.499 30.68V29.576C208.2 30.0027 207.811 30.3493 207.331 30.616C206.861 30.872 206.296 31 205.635 31C204.856 31 204.173 30.824 203.587 30.472C203.011 30.1093 202.563 29.6187 202.243 29C201.923 28.3813 201.763 27.6933 201.763 26.936C201.763 26.168 201.923 25.48 202.243 24.872C202.563 24.2533 203.011 23.768 203.587 23.416C204.173 23.0533 204.856 22.872 205.635 22.872C206.296 22.872 206.861 23 207.331 23.256C207.811 23.5013 208.2 23.8427 208.499 24.28V23H209.699V30.76C209.699 31.9013 209.368 32.776 208.707 33.384C208.056 33.992 207.128 34.296 205.923 34.296ZM205.795 29.912C206.381 29.912 206.877 29.7787 207.283 29.512C207.699 29.2453 208.013 28.888 208.227 28.44C208.451 27.9813 208.563 27.48 208.563 26.936C208.563 26.3813 208.451 25.88 208.227 25.432C208.013 24.984 207.699 24.6267 207.283 24.36C206.877 24.0933 206.381 23.96 205.795 23.96C205.208 23.96 204.701 24.0933 204.275 24.36C203.848 24.6267 203.523 24.984 203.299 25.432C203.075 25.88 202.963 26.3813 202.963 26.936C202.963 27.48 203.075 27.9813 203.299 28.44C203.523 28.888 203.848 29.2453 204.275 29.512C204.701 29.7787 205.208 29.912 205.795 29.912Z" fill="#F8E8D6" fillOpacity="0.88"/>
</svg>
