<svg width="77" height="54" viewBox="0 0 77 54" fill="none" xmlns="http://www.w3.org/2000/svg">
<path d="M76.0469 34.4918C76.0469 39.8989 75.0039 44.4938 73.057 47.7739C70.7382 51.6622 67.1469 53.7188 62.6273 53.7188C53.7447 53.7188 47.0419 41.0625 39.9428 27.6645C33.5563 15.5848 26.937 3.0938 19.7266 3.0938C15.8676 3.0938 11.8348 6.79575 8.65719 13.2504C5.48981 19.8781 3.80885 27.1312 3.73438 34.4918C3.73438 39.3891 4.63133 43.4778 6.32441 46.3219C8.13918 49.3629 10.8439 50.8922 14.3588 50.8922C20.3211 50.8922 25.8557 42.3422 30.9524 33.1032C31.0414 32.9416 31.161 32.7993 31.3044 32.6845C31.4478 32.5696 31.6122 32.4845 31.7881 32.4339C31.9641 32.3833 32.1482 32.3682 32.3299 32.3896C32.5116 32.4109 32.6873 32.4682 32.8471 32.5583C33.0069 32.6483 33.1476 32.7692 33.2612 32.9143C33.3747 33.0593 33.4589 33.2255 33.509 33.4034C33.559 33.5813 33.5739 33.7675 33.5528 33.9512C33.5317 34.1349 33.475 34.3127 33.386 34.4743C28.2511 43.7907 22.1254 53.7188 14.3588 53.7188C9.86355 53.7188 6.26184 51.6622 3.92906 47.7739C1.99609 44.4938 0.953125 39.8989 0.953125 34.4918C1.03297 26.6952 2.81361 19.0124 6.16797 11.9918C9.88441 4.44028 14.6995 0.281298 19.7266 0.281298C28.6057 0.281298 35.312 12.9375 42.4111 26.3356C48.8115 38.4153 55.4274 50.9063 62.6447 50.9063C66.163 50.9063 68.8643 49.3629 70.6791 46.336C72.3721 43.4918 73.2691 39.4032 73.2691 34.5059C73.1946 27.1453 71.5137 19.8921 68.3463 13.2645C65.1652 6.79575 61.1324 3.0938 57.2734 3.0938C53.8838 3.0938 50.2682 5.9063 46.2249 11.7317C46.0077 12.0232 45.6869 12.2179 45.3304 12.2747C44.9738 12.3314 44.6094 12.2457 44.3142 12.0357C44.019 11.8257 43.816 11.5079 43.7483 11.1494C43.6806 10.7909 43.7534 10.4198 43.9512 10.1145C48.6168 3.40669 52.8512 0.270752 57.2734 0.270752C62.2971 0.270752 67.1121 4.42974 70.832 11.9848C74.1874 19.0075 75.968 26.6928 76.0469 34.4918Z" fill="black"/>
</svg>
